# xmcd
#
# Track frame offsets:
#	150
#	9381
#	93492
#	127666
#	174809
#	238985
#
# Disc length: 4346 seconds
#
# Revision: 1
# Processed by: cddbd v1.5.2PL0 Copyright (c) Steve Scherf et al.
# Submitted via: audiograbber 1.83.01
#
DISCID=3b10f806
DTITLE=Grateful Dead - 79-10-31 Nassau Veterans Memorial Coliseum, Uniondale NY
DYEAR=1900
DGENRE=
TTITLE0=Tuning
TTITLE1=Shakedown Street
TTITLE2=Passenger
TTITLE3=Ramble On Rose
TTITLE4=Estimated Prophet
TTITLE5=Eyes Of The World
EXTD=
EXTT0=
EXTT1=
EXTT2=
EXTT3=
EXTT4=
EXTT5=
PLAYORDER=
